<?xml version="1.0" encoding="UTF-8" standalone="no"?>
<!-- Created with Inkscape (http://www.inkscape.org/) -->

<svg
   xmlns:dc="http://purl.org/dc/elements/1.1/"
   xmlns:cc="http://creativecommons.org/ns#"
   xmlns:rdf="http://www.w3.org/1999/02/22-rdf-syntax-ns#"
   xmlns:svg="http://www.w3.org/2000/svg"
   xmlns="http://www.w3.org/2000/svg"
   xmlns:sodipodi="http://sodipodi.sourceforge.net/DTD/sodipodi-0.dtd"
   xmlns:inkscape="http://www.inkscape.org/namespaces/inkscape"
   width="480.56171mm"
   height="431.74564mm"
   viewBox="0 0 1702.7777 1529.8074"
   id="svg2"
   version="1.1"
   inkscape:version="0.91 r13725"
   sodipodi:docname="astrologo11.svg"
   inkscape:export-filename="/home/sean/Desktop/AstroDesigns/astrologo11.png"
   inkscape:export-xdpi="90"
   inkscape:export-ydpi="90">
  <defs
     id="defs4" />
  <sodipodi:namedview
     id="base"
     pagecolor="#ffffff"
     bordercolor="#666666"
     borderopacity="1.0"
     inkscape:pageopacity="0.0"
     inkscape:pageshadow="2"
     inkscape:zoom="0.24748737"
     inkscape:cx="251.89282"
     inkscape:cy="335.72132"
     inkscape:document-units="px"
     inkscape:current-layer="layer1"
     showgrid="false"
     showguides="false"
     inkscape:window-width="1280"
     inkscape:window-height="1000"
     inkscape:window-x="1280"
     inkscape:window-y="24"
     inkscape:window-maximized="1"
     fit-margin-top="0"
     fit-margin-left="0"
     fit-margin-right="0"
     fit-margin-bottom="0" />
  <metadata
     id="metadata7">
    <rdf:RDF>
      <cc:Work
         rdf:about="">
        <dc:format>image/svg+xml</dc:format>
        <dc:type
           rdf:resource="http://purl.org/dc/dcmitype/StillImage" />
        <dc:title />
      </cc:Work>
    </rdf:RDF>
  </metadata>
  <g
     inkscape:label="Layer 1"
     inkscape:groupmode="layer"
     id="layer1"
     transform="translate(458.5324,555.18506)">
    <path
       inkscape:transform-center-x="-1.7396762e-05"
       transform="matrix(1.3662305,0,0,1.367075,-143.876,-253.74572)"
       inkscape:transform-center-y="-237.59641"
       d="m 392.85646,-211.35306 c 150.51443,0 225.77163,391.04795 301.02883,521.39726 75.25721,130.34932 376.28601,391.04797 301.02885,521.39728 -75.25721,130.34932 -451.54327,-10e-6 -602.05769,-10e-6 -150.51443,-10e-6 -526.8005,130.3493 -602.05771,-2e-5 C -284.45848,701.09214 16.57038,440.39352 91.827595,310.04421 167.08481,179.69489 242.34204,-211.35306 392.85646,-211.35306 Z"
       inkscape:randomized="0"
       inkscape:rounded="0.25"
       inkscape:flatsided="false"
       sodipodi:arg2="-0.52359878"
       sodipodi:arg1="-1.5707963"
       sodipodi:r2="347.59818"
       sodipodi:r1="695.19635"
       sodipodi:cy="483.84329"
       sodipodi:cx="392.85645"
       sodipodi:sides="3"
       id="path4143"
       style="opacity:1;fill:#ffffff;fill-opacity:1;stroke:#550000;stroke-width:18.29286957;stroke-linecap:round;stroke-linejoin:round;stroke-miterlimit:4;stroke-dasharray:none;stroke-opacity:1"
       sodipodi:type="star" />
    <path
       style="opacity:1;fill:#000080;fill-opacity:1;stroke:#550000;stroke-width:15;stroke-linecap:round;stroke-linejoin:round;stroke-miterlimit:4;stroke-dasharray:none;stroke-opacity:1"
       d="m 626.51367,-318.82812 c -205.6374,0 -308.45473,534.59177 -411.27344,712.78906 -102.8187,178.19728 -514.09408,534.59177 -411.27539,712.78906 102.818705,178.1973 616.91143,0 822.54883,0 205.6374,0 719.73213,178.1973 822.55083,0 C 1551.8832,928.55271 1140.6078,572.15823 1037.7891,393.96094 934.97037,215.76365 832.15107,-318.82813 626.51367,-318.82812 Z m 0.002,631.67187 c 34.79578,0 68.51562,4.62301 100.57813,13.28711 l 205.38867,0 c 35.68224,0 64.54688,29.28707 64.54688,65.49219 l 0,201.83789 c 9.30385,33.13731 14.28515,68.08035 14.28515,104.18359 0,212.46231 -172.33651,384.79887 -384.79883,384.79887 -212.46232,0 -384.80078,-172.33656 -384.80078,-384.79887 0,-36.10324 4.98121,-71.04628 14.28516,-104.18359 l 0,-201.83789 c 0,-36.20512 28.86464,-65.49219 64.54688,-65.49219 l 205.39062,0 c 32.0626,-8.6641 65.78235,-13.28711 100.57812,-13.28711 z"
       transform="translate(-233.65805,-223.85306)"
       id="path4271"
       inkscape:connector-curvature="0" />
    <path
       style="color:#000000;font-style:normal;font-variant:normal;font-weight:normal;font-stretch:normal;font-size:medium;line-height:normal;font-family:sans-serif;text-indent:0;text-align:start;text-decoration:none;text-decoration-line:none;text-decoration-style:solid;text-decoration-color:#000000;letter-spacing:normal;word-spacing:normal;text-transform:none;direction:ltr;block-progression:tb;writing-mode:lr-tb;baseline-shift:baseline;text-anchor:start;white-space:normal;clip-rule:nonzero;display:inline;overflow:visible;visibility:visible;opacity:1;isolation:auto;mix-blend-mode:normal;color-interpolation:sRGB;color-interpolation-filters:linearRGB;solid-color:#000000;solid-opacity:1;fill:#000080;fill-opacity:1;fill-rule:nonzero;stroke:none;stroke-width:9.60000038;stroke-linecap:butt;stroke-linejoin:miter;stroke-miterlimit:4;stroke-dasharray:none;stroke-dashoffset:0;stroke-opacity:1;color-rendering:auto;image-rendering:auto;shape-rendering:auto;text-rendering:auto;enable-background:accumulate"
       d="m 392.85547,141.2832 c -191.01846,0 -346.347657,142.63238 -346.347658,318.95703 10e-7,59.98981 17.994145,116.07104 49.242188,163.97071 l 0,15.92578 c 0,72.91442 50.24249,131.77734 112.48047,131.77734 l 110.85742,0 c 23.78075,4.75569 48.45706,7.28321 73.76953,7.28321 25.31248,0 49.98884,-2.52752 73.76953,-7.28321 l 110.85547,0 c 62.23797,0 112.48047,-58.86292 112.48047,-131.77734 l 0,-15.92578 c 31.24775,-47.89967 49.24219,-103.9809 49.24219,-163.97071 0,-176.32465 -155.33115,-318.95703 -346.34961,-318.95703 z"
       id="path4150"
       inkscape:connector-curvature="0" />
    <path
       style="color:#000000;font-style:normal;font-variant:normal;font-weight:normal;font-stretch:normal;font-size:medium;line-height:normal;font-family:sans-serif;text-indent:0;text-align:start;text-decoration:none;text-decoration-line:none;text-decoration-style:solid;text-decoration-color:#000000;letter-spacing:normal;word-spacing:normal;text-transform:none;direction:ltr;block-progression:tb;writing-mode:lr-tb;baseline-shift:baseline;text-anchor:start;white-space:normal;clip-rule:nonzero;display:inline;overflow:visible;visibility:visible;opacity:1;isolation:auto;mix-blend-mode:normal;color-interpolation:sRGB;color-interpolation-filters:linearRGB;solid-color:#000000;solid-opacity:1;fill:#ffcc00;fill-opacity:1;fill-rule:nonzero;stroke:#00008b;stroke-width:3;stroke-linecap:butt;stroke-linejoin:miter;stroke-miterlimit:4;stroke-dasharray:none;stroke-dashoffset:0;stroke-opacity:1;color-rendering:auto;image-rendering:auto;shape-rendering:auto;text-rendering:auto;enable-background:accumulate"
       d="m 690.94531,144.48633 c -26.02557,0 -47.22656,21.20099 -47.22656,47.22656 0,26.02557 21.20099,47.22656 47.22656,47.22656 26.02557,0 47.22461,-21.20099 47.22461,-47.22656 0,-26.02557 -21.19904,-47.22656 -47.22461,-47.22656 z"
       id="path4165"
       inkscape:connector-curvature="0" />
    <path
       style="color:#000000;font-style:normal;font-variant:normal;font-weight:normal;font-stretch:normal;font-size:medium;line-height:normal;font-family:sans-serif;text-indent:0;text-align:start;text-decoration:none;text-decoration-line:none;text-decoration-style:solid;text-decoration-color:#000000;letter-spacing:normal;word-spacing:normal;text-transform:none;direction:ltr;block-progression:tb;writing-mode:lr-tb;baseline-shift:baseline;text-anchor:start;white-space:normal;clip-rule:nonzero;display:inline;overflow:visible;visibility:visible;opacity:0.97699998;isolation:auto;mix-blend-mode:normal;color-interpolation:sRGB;color-interpolation-filters:linearRGB;solid-color:#000000;solid-opacity:1;fill:#ff0000;fill-opacity:1;fill-rule:nonzero;stroke:none;stroke-width:5;stroke-linecap:butt;stroke-linejoin:miter;stroke-miterlimit:4;stroke-dasharray:none;stroke-dashoffset:0;stroke-opacity:1;color-rendering:auto;image-rendering:auto;shape-rendering:auto;text-rendering:auto;enable-background:accumulate"
       d="m 275.69607,268.98831 c -29.24038,17.91244 -41.92915,55.78744 -39.39684,101.85202 2.53233,46.06459 20.22064,100.66875 52.40323,153.20381 32.18258,52.53505 72.79263,93.09752 112.67981,116.2788 39.88717,23.18128 79.39284,29.08236 108.63323,11.16992 29.24038,-17.91244 41.93082,-55.78847 39.3985,-101.85305 C 546.88168,503.57523 529.19336,448.97107 497.01078,396.43601 464.8282,343.90095 424.21814,303.33848 384.33097,280.1572 344.4438,256.97592 304.93646,251.07587 275.69607,268.98831 Z m 12.95848,18.98259 c 27.10468,-16.60412 54.99731,-15.3721 93.96569,7.27519 38.96836,22.64729 78.32509,51.88821 110.12695,103.80177 31.80185,51.91355 52.10408,106.36698 54.57808,151.37045 2.47398,45.00348 -10.79663,82.73221 -37.90131,99.33633 -27.10468,16.60413 -69.59211,10.91207 -108.56048,-11.73522 C 361.89511,615.37212 330.4822,572.63155 298.68034,520.718 266.87849,468.80444 253.52105,414.8561 251.04706,369.85262 c -2.47399,-45.00348 10.50281,-65.27759 37.60749,-81.88172 z"
       id="path4189"
       inkscape:connector-curvature="0"
       sodipodi:nodetypes="ssssssssssssssssss" />
    <path
       id="path4200"
       d="m 77.782199,140.44673 c -12.10843,0 -21.972224,9.8638 -21.972224,21.97224 0,12.10844 9.863794,21.97224 21.972224,21.97224 12.10844,0 21.971316,-9.8638 21.971316,-21.97224 0,-12.10844 -9.862876,-21.97224 -21.971316,-21.97224 z"
       style="color:#000000;font-style:normal;font-variant:normal;font-weight:normal;font-stretch:normal;font-size:medium;line-height:normal;font-family:sans-serif;text-indent:0;text-align:start;text-decoration:none;text-decoration-line:none;text-decoration-style:solid;text-decoration-color:#000000;letter-spacing:normal;word-spacing:normal;text-transform:none;direction:ltr;block-progression:tb;writing-mode:lr-tb;baseline-shift:baseline;text-anchor:start;white-space:normal;clip-rule:nonzero;display:inline;overflow:visible;visibility:visible;opacity:1;isolation:auto;mix-blend-mode:normal;color-interpolation:sRGB;color-interpolation-filters:linearRGB;solid-color:#000000;solid-opacity:1;fill:#ffcc00;fill-opacity:1;fill-rule:nonzero;stroke:#00008b;stroke-width:3;stroke-linecap:butt;stroke-linejoin:miter;stroke-miterlimit:4;stroke-dasharray:none;stroke-dashoffset:0;stroke-opacity:1;color-rendering:auto;image-rendering:auto;shape-rendering:auto;text-rendering:auto;enable-background:accumulate"
       inkscape:connector-curvature="0" />
    <path
       inkscape:connector-curvature="0"
       style="color:#000000;font-style:normal;font-variant:normal;font-weight:normal;font-stretch:normal;font-size:medium;line-height:normal;font-family:sans-serif;text-indent:0;text-align:start;text-decoration:none;text-decoration-line:none;text-decoration-style:solid;text-decoration-color:#000000;letter-spacing:normal;word-spacing:normal;text-transform:none;direction:ltr;block-progression:tb;writing-mode:lr-tb;baseline-shift:baseline;text-anchor:start;white-space:normal;clip-rule:nonzero;display:inline;overflow:visible;visibility:visible;opacity:1;isolation:auto;mix-blend-mode:normal;color-interpolation:sRGB;color-interpolation-filters:linearRGB;solid-color:#000000;solid-opacity:1;fill:#ffcc00;fill-opacity:1;fill-rule:nonzero;stroke:#00008b;stroke-width:3;stroke-linecap:butt;stroke-linejoin:miter;stroke-miterlimit:4;stroke-dasharray:none;stroke-dashoffset:0;stroke-opacity:1;color-rendering:auto;image-rendering:auto;shape-rendering:auto;text-rendering:auto;enable-background:accumulate"
       d="m 77.782199,213.17771 c -12.10843,0 -21.972224,9.8638 -21.972224,21.97224 0,12.10844 9.863794,21.97224 21.972224,21.97224 12.10844,0 21.971316,-9.8638 21.971316,-21.97224 0,-12.10844 -9.862876,-21.97224 -21.971316,-21.97224 z"
       id="path4202" />
    <path
       style="color:#000000;font-style:normal;font-variant:normal;font-weight:normal;font-stretch:normal;font-size:medium;line-height:normal;font-family:sans-serif;text-indent:0;text-align:start;text-decoration:none;text-decoration-line:none;text-decoration-style:solid;text-decoration-color:#000000;letter-spacing:normal;word-spacing:normal;text-transform:none;direction:ltr;block-progression:tb;writing-mode:lr-tb;baseline-shift:baseline;text-anchor:start;white-space:normal;clip-rule:nonzero;display:inline;overflow:visible;visibility:visible;opacity:1;isolation:auto;mix-blend-mode:normal;color-interpolation:sRGB;color-interpolation-filters:linearRGB;solid-color:#000000;solid-opacity:1;fill:#ff0000;fill-opacity:1;fill-rule:nonzero;stroke:none;stroke-width:3;stroke-linecap:butt;stroke-linejoin:miter;stroke-miterlimit:4;stroke-dasharray:none;stroke-dashoffset:0;stroke-opacity:1;color-rendering:auto;image-rendering:auto;shape-rendering:auto;text-rendering:auto;enable-background:accumulate"
       d="m 213.57609,417.62246 -47.39117,10.46552 47.39117,10.5918 471.79704,-10.5918 z"
       id="path4219"
       inkscape:connector-curvature="0"
       sodipodi:nodetypes="ccccc" />
  </g>
</svg>
