<?xml version="1.0" encoding="UTF-8" standalone="no"?>
<!-- Created with Inkscape (http://www.inkscape.org/) -->

<svg
   xmlns:dc="http://purl.org/dc/elements/1.1/"
   xmlns:cc="http://creativecommons.org/ns#"
   xmlns:rdf="http://www.w3.org/1999/02/22-rdf-syntax-ns#"
   xmlns:svg="http://www.w3.org/2000/svg"
   xmlns="http://www.w3.org/2000/svg"
   xmlns:sodipodi="http://sodipodi.sourceforge.net/DTD/sodipodi-0.dtd"
   xmlns:inkscape="http://www.inkscape.org/namespaces/inkscape"
   sodipodi:docname="astrologo7.svg"
   inkscape:version="0.91 r13725"
   version="1.1"
   id="svg2"
   viewBox="0 0 1274.4363 1287.2304"
   height="363.28503mm"
   width="359.67426mm"
   inkscape:export-filename="/home/sean/Desktop/AstroDesigns/astrologo7.png"
   inkscape:export-xdpi="90"
   inkscape:export-ydpi="90">
  <defs
     id="defs4" />
  <sodipodi:namedview
     inkscape:window-maximized="1"
     inkscape:window-y="24"
     inkscape:window-x="1280"
     inkscape:window-height="1000"
     inkscape:window-width="1280"
     showguides="false"
     showgrid="false"
     inkscape:current-layer="layer1"
     inkscape:document-units="px"
     inkscape:cy="307.41835"
     inkscape:cx="17.388286"
     inkscape:zoom="0.35"
     inkscape:pageshadow="2"
     inkscape:pageopacity="0.0"
     borderopacity="1.0"
     bordercolor="#666666"
     pagecolor="#ffffff"
     id="base"
     fit-margin-top="0"
     fit-margin-left="0"
     fit-margin-right="0"
     fit-margin-bottom="0" />
  <metadata
     id="metadata7">
    <rdf:RDF>
      <cc:Work
         rdf:about="">
        <dc:format>image/svg+xml</dc:format>
        <dc:type
           rdf:resource="http://purl.org/dc/dcmitype/StillImage" />
        <dc:title />
      </cc:Work>
    </rdf:RDF>
  </metadata>
  <g
     inkscape:label="Layer 1"
     inkscape:groupmode="layer"
     id="layer1"
     transform="translate(244.36167,373.37481)">
    <path
       transform="matrix(1.0471325,0,0,1.1221853,-18.516296,-136.19723)"
       inkscape:transform-center-y="-195.03476"
       d="m 392.85646,-211.35306 c 91.65328,0 345.51085,389.88347 391.33749,469.25754 45.82663,79.37407 256.54685,494.16294 210.72019,573.537 -45.82664,79.37407 -510.40442,104.27944 -602.05769,104.27944 -91.65328,-10e-6 -556.23108,-24.9054 -602.05771,-104.27947 C -255.0279,752.06739 -44.307696,337.27854 1.5189421,257.90448 47.345583,178.53042 301.20319,-211.35306 392.85646,-211.35306 Z"
       inkscape:randomized="0"
       inkscape:rounded="0.15"
       inkscape:flatsided="false"
       sodipodi:arg2="-0.52359878"
       sodipodi:arg1="-1.5707963"
       sodipodi:r2="451.87762"
       sodipodi:r1="695.19635"
       sodipodi:cy="483.84329"
       sodipodi:cx="392.85645"
       sodipodi:sides="3"
       id="path4141"
       style="opacity:1;fill:#ffffff;fill-opacity:1;stroke:none;stroke-width:20.80457306;stroke-linecap:round;stroke-linejoin:round;stroke-miterlimit:4;stroke-dasharray:none;stroke-opacity:1"
       sodipodi:type="star" />
    <path
       style="opacity:1;fill:#800000;fill-opacity:1;stroke:none;stroke-width:20.80457306;stroke-linecap:round;stroke-linejoin:round;stroke-miterlimit:4;stroke-dasharray:none;stroke-opacity:1"
       d="m 533.96875,-182.85742 c -95.97312,0 -361.79469,437.52134 -409.78125,526.59375 -47.986562,89.0724 -268.6389,554.54283 -220.652344,643.61523 47.986563,89.07244 534.460474,117.02144 630.433594,117.02144 95.97312,0 582.44705,-27.949 630.43355,-117.02144 C 1212.3889,898.27915 991.73851,432.80874 943.75195,343.73633 895.7654,254.66392 629.94187,-182.85742 533.96875,-182.85742 Z m 0.002,462.36523 c 34.79578,0 68.51562,4.62301 100.57813,13.28711 l 205.38867,0 c 35.68224,0 64.54688,29.28707 64.54688,65.49219 l 0,201.83789 c 9.30386,33.13731 14.28515,68.08035 14.28515,104.18359 0,212.46231 -172.33651,384.79881 -384.79883,384.79881 -212.46232,0 -384.80078,-172.3365 -384.80078,-384.79881 0,-36.10324 4.98121,-71.04628 14.28516,-104.18359 l 0,-201.83789 c 0,-36.20512 28.86464,-65.49219 64.54687,-65.49219 l 205.39063,0 c 32.0626,-8.6641 65.78235,-13.28711 100.57812,-13.28711 z"
       transform="translate(-141.11251,-190.51739)"
       id="path4271"
       inkscape:connector-curvature="0" />
    <path
       style="color:#000000;font-style:normal;font-variant:normal;font-weight:normal;font-stretch:normal;font-size:medium;line-height:normal;font-family:sans-serif;text-indent:0;text-align:start;text-decoration:none;text-decoration-line:none;text-decoration-style:solid;text-decoration-color:#000000;letter-spacing:normal;word-spacing:normal;text-transform:none;direction:ltr;block-progression:tb;writing-mode:lr-tb;baseline-shift:baseline;text-anchor:start;white-space:normal;clip-rule:nonzero;display:inline;overflow:visible;visibility:visible;opacity:1;isolation:auto;mix-blend-mode:normal;color-interpolation:sRGB;color-interpolation-filters:linearRGB;solid-color:#000000;solid-opacity:1;fill:#000080;fill-opacity:1;fill-rule:nonzero;stroke:none;stroke-width:9.60000038;stroke-linecap:butt;stroke-linejoin:miter;stroke-miterlimit:4;stroke-dasharray:none;stroke-dashoffset:0;stroke-opacity:1;color-rendering:auto;image-rendering:auto;shape-rendering:auto;text-rendering:auto;enable-background:accumulate"
       d="m 392.85547,141.2832 c -191.01846,0 -346.347657,142.63238 -346.347658,318.95703 10e-7,59.98981 17.994145,116.07104 49.242188,163.97071 l 0,15.92578 c 0,72.91442 50.24249,131.77734 112.48047,131.77734 l 110.85742,0 c 23.78075,4.75569 48.45706,7.28321 73.76953,7.28321 25.31248,0 49.98884,-2.52752 73.76953,-7.28321 l 110.85547,0 c 62.23797,0 112.48047,-58.86292 112.48047,-131.77734 l 0,-15.92578 c 31.24775,-47.89967 49.24219,-103.9809 49.24219,-163.97071 0,-176.32465 -155.33115,-318.95703 -346.34961,-318.95703 z"
       id="path4150"
       inkscape:connector-curvature="0" />
    <path
       style="color:#000000;font-style:normal;font-variant:normal;font-weight:normal;font-stretch:normal;font-size:medium;line-height:normal;font-family:sans-serif;text-indent:0;text-align:start;text-decoration:none;text-decoration-line:none;text-decoration-style:solid;text-decoration-color:#000000;letter-spacing:normal;word-spacing:normal;text-transform:none;direction:ltr;block-progression:tb;writing-mode:lr-tb;baseline-shift:baseline;text-anchor:start;white-space:normal;clip-rule:nonzero;display:inline;overflow:visible;visibility:visible;opacity:1;isolation:auto;mix-blend-mode:normal;color-interpolation:sRGB;color-interpolation-filters:linearRGB;solid-color:#000000;solid-opacity:1;fill:#ffcc00;fill-opacity:1;fill-rule:nonzero;stroke:#00008b;stroke-width:3;stroke-linecap:butt;stroke-linejoin:miter;stroke-miterlimit:4;stroke-dasharray:none;stroke-dashoffset:0;stroke-opacity:1;color-rendering:auto;image-rendering:auto;shape-rendering:auto;text-rendering:auto;enable-background:accumulate"
       d="m 690.94531,144.48633 c -26.02557,0 -47.22656,21.20099 -47.22656,47.22656 0,26.02557 21.20099,47.22656 47.22656,47.22656 26.02557,0 47.22461,-21.20099 47.22461,-47.22656 0,-26.02557 -21.19904,-47.22656 -47.22461,-47.22656 z"
       id="path4165"
       inkscape:connector-curvature="0" />
    <path
       style="color:#000000;font-style:normal;font-variant:normal;font-weight:normal;font-stretch:normal;font-size:medium;line-height:normal;font-family:sans-serif;text-indent:0;text-align:start;text-decoration:none;text-decoration-line:none;text-decoration-style:solid;text-decoration-color:#000000;letter-spacing:normal;word-spacing:normal;text-transform:none;direction:ltr;block-progression:tb;writing-mode:lr-tb;baseline-shift:baseline;text-anchor:start;white-space:normal;clip-rule:nonzero;display:inline;overflow:visible;visibility:visible;opacity:0.97699998;isolation:auto;mix-blend-mode:normal;color-interpolation:sRGB;color-interpolation-filters:linearRGB;solid-color:#000000;solid-opacity:1;fill:#ff0000;fill-opacity:1;fill-rule:nonzero;stroke:none;stroke-width:5;stroke-linecap:butt;stroke-linejoin:miter;stroke-miterlimit:4;stroke-dasharray:none;stroke-dashoffset:0;stroke-opacity:1;color-rendering:auto;image-rendering:auto;shape-rendering:auto;text-rendering:auto;enable-background:accumulate"
       d="m 275.69607,268.98831 c -29.24038,17.91244 -41.92915,55.78744 -39.39684,101.85202 2.53233,46.06459 20.22064,100.66875 52.40323,153.20381 32.18258,52.53505 72.79263,93.09752 112.67981,116.2788 39.88717,23.18128 79.39284,29.08236 108.63323,11.16992 29.24038,-17.91244 41.93082,-55.78847 39.3985,-101.85305 C 546.88168,503.57523 529.19336,448.97107 497.01078,396.43601 464.8282,343.90095 424.21814,303.33848 384.33097,280.1572 344.4438,256.97592 304.93646,251.07587 275.69607,268.98831 Z m 12.95848,18.98259 c 27.10468,-16.60412 54.99731,-15.3721 93.96569,7.27519 38.96836,22.64729 78.32509,51.88821 110.12695,103.80177 31.80185,51.91355 52.10408,106.36698 54.57808,151.37045 2.47398,45.00348 -10.79663,82.73221 -37.90131,99.33633 -27.10468,16.60413 -69.59211,10.91207 -108.56048,-11.73522 C 361.89511,615.37212 330.4822,572.63155 298.68034,520.718 266.87849,468.80444 253.52105,414.8561 251.04706,369.85262 c -2.47399,-45.00348 10.50281,-65.27759 37.60749,-81.88172 z"
       id="path4189"
       inkscape:connector-curvature="0"
       sodipodi:nodetypes="ssssssssssssssssss" />
    <path
       id="path4200"
       d="m 77.782199,140.44673 c -12.10843,0 -21.972224,9.8638 -21.972224,21.97224 0,12.10844 9.863794,21.97224 21.972224,21.97224 12.10844,0 21.971316,-9.8638 21.971316,-21.97224 0,-12.10844 -9.862876,-21.97224 -21.971316,-21.97224 z"
       style="color:#000000;font-style:normal;font-variant:normal;font-weight:normal;font-stretch:normal;font-size:medium;line-height:normal;font-family:sans-serif;text-indent:0;text-align:start;text-decoration:none;text-decoration-line:none;text-decoration-style:solid;text-decoration-color:#000000;letter-spacing:normal;word-spacing:normal;text-transform:none;direction:ltr;block-progression:tb;writing-mode:lr-tb;baseline-shift:baseline;text-anchor:start;white-space:normal;clip-rule:nonzero;display:inline;overflow:visible;visibility:visible;opacity:1;isolation:auto;mix-blend-mode:normal;color-interpolation:sRGB;color-interpolation-filters:linearRGB;solid-color:#000000;solid-opacity:1;fill:#ffcc00;fill-opacity:1;fill-rule:nonzero;stroke:#00008b;stroke-width:3;stroke-linecap:butt;stroke-linejoin:miter;stroke-miterlimit:4;stroke-dasharray:none;stroke-dashoffset:0;stroke-opacity:1;color-rendering:auto;image-rendering:auto;shape-rendering:auto;text-rendering:auto;enable-background:accumulate"
       inkscape:connector-curvature="0" />
    <path
       inkscape:connector-curvature="0"
       style="color:#000000;font-style:normal;font-variant:normal;font-weight:normal;font-stretch:normal;font-size:medium;line-height:normal;font-family:sans-serif;text-indent:0;text-align:start;text-decoration:none;text-decoration-line:none;text-decoration-style:solid;text-decoration-color:#000000;letter-spacing:normal;word-spacing:normal;text-transform:none;direction:ltr;block-progression:tb;writing-mode:lr-tb;baseline-shift:baseline;text-anchor:start;white-space:normal;clip-rule:nonzero;display:inline;overflow:visible;visibility:visible;opacity:1;isolation:auto;mix-blend-mode:normal;color-interpolation:sRGB;color-interpolation-filters:linearRGB;solid-color:#000000;solid-opacity:1;fill:#ffcc00;fill-opacity:1;fill-rule:nonzero;stroke:#00008b;stroke-width:3;stroke-linecap:butt;stroke-linejoin:miter;stroke-miterlimit:4;stroke-dasharray:none;stroke-dashoffset:0;stroke-opacity:1;color-rendering:auto;image-rendering:auto;shape-rendering:auto;text-rendering:auto;enable-background:accumulate"
       d="m 77.782199,213.17771 c -12.10843,0 -21.972224,9.8638 -21.972224,21.97224 0,12.10844 9.863794,21.97224 21.972224,21.97224 12.10844,0 21.971316,-9.8638 21.971316,-21.97224 0,-12.10844 -9.862876,-21.97224 -21.971316,-21.97224 z"
       id="path4202" />
    <path
       style="color:#000000;font-style:normal;font-variant:normal;font-weight:normal;font-stretch:normal;font-size:medium;line-height:normal;font-family:sans-serif;text-indent:0;text-align:start;text-decoration:none;text-decoration-line:none;text-decoration-style:solid;text-decoration-color:#000000;letter-spacing:normal;word-spacing:normal;text-transform:none;direction:ltr;block-progression:tb;writing-mode:lr-tb;baseline-shift:baseline;text-anchor:start;white-space:normal;clip-rule:nonzero;display:inline;overflow:visible;visibility:visible;opacity:1;isolation:auto;mix-blend-mode:normal;color-interpolation:sRGB;color-interpolation-filters:linearRGB;solid-color:#000000;solid-opacity:1;fill:#ff0000;fill-opacity:1;fill-rule:nonzero;stroke:none;stroke-width:3;stroke-linecap:butt;stroke-linejoin:miter;stroke-miterlimit:4;stroke-dasharray:none;stroke-dashoffset:0;stroke-opacity:1;color-rendering:auto;image-rendering:auto;shape-rendering:auto;text-rendering:auto;enable-background:accumulate"
       d="m 213.57609,417.62246 -47.39117,10.46552 47.39117,10.5918 471.79704,-10.5918 z"
       id="path4219"
       inkscape:connector-curvature="0"
       sodipodi:nodetypes="ccccc" />
  </g>
</svg>
